<?xml version="1.0" encoding="UTF-8"?>
<svg xmlns="http://www.w3.org/2000/svg" viewBox="0 0 799.61 611.55">
  <defs>
    <style>
      .cls-1, .cls-2 {
        stroke: #c1272d;
      }

      .cls-1, .cls-2, .cls-3 {
        fill: none;
        stroke-miterlimit: 10;
      }

      .cls-1, .cls-3 {
        stroke-width: 3px;
      }

      .cls-2 {
        stroke-width: 2px;
      }

      .cls-4 {
        fill: #c3d3a5;
      }

      .cls-3 {
        stroke: #000;
      }
    </style>
  </defs>
  <g id="Layer_3" data-name="Layer 3">
    <rect class="cls-4" width="799.61" height="611.55"/>
  </g>
  <g id="Layer_2" data-name="Layer 2">
    <g>
      <path class="cls-3" d="M510.77,441.14h0c0,10.55-4.6,21.93-10.68,30.55l.85-1.09c-.85,1.09-2.31,3.35-11.13,8.14l7.1-4.16c-19.76,12.9-47.01,18.21-70.41,21.55h0c-10.5,1.5-21.09,2.25-31.7,2.25h-4.98c-14.62,0-29.22-.93-43.71-2.77h0c-15-1.91-24.74-3.14-37.62-6.46-6.53-1.68-12.81-4.2-18.72-7.45h0s-3.37-1.86-3.37-1.86c-12.03-6.63-19.68-19.22-19.74-32.95,0-.11,0-.23,0-.34v-3.82"/>
      <path class="cls-3" d="M659.83,226.8l3.19,8.56h0c-.67,12.28-.52,23.31-3.94,34.28l-3.95,12.64-2.69,7.68c-6.71,19.16-14.94,37.76-24.63,55.6h0c-1.84,3.4-4.02,6.6-6.49,9.57h0c-15.74,18.88-32.85,36.58-51.19,52.94h0c-4.11,3.67-8.61,6.88-13.41,9.58l-9.9,5.57c-17.71,9.96-36.42,18.04-55.82,24.11h0s-26.43,7.26-26.43,7.26c-13.35,3.67-27.01,6.09-40.81,7.24h0c-22.61,1.88-45.33,1.9-67.94.04l-6.66-.55c-17.26-1.42-34.36-4.27-51.15-8.53h0c-23.8-6.04-46.65-15.35-67.9-27.67h0c-9.02-5.23-17.41-11.47-25.02-18.61l-10.22-9.58c-14.71-13.79-28.31-28.73-40.67-44.67l-19.74-25.46-26.67-65.49v-34.5"/>
      <ellipse class="cls-1" cx="383.81" cy="226.8" rx="276.02" ry="60.95"/>
      <polyline points="651.05 82.49 659.83 91.74 412.65 286.28 393.88 286.37"/>
      <polyline points="453.31 284.83 699.43 105.41 691.27 97.23 430.57 285.68"/>
    </g>
    <path class="cls-2" d="M462.03,441.92c-4.91.47-9.87.28-14.73-.57-1.16-.2-2.32-.44-3.49-.58-1.59-.19-3.2-.19-4.81-.18-6.05,0-11.98-.78-18.02-.46-6.84.37-13.58-1.89-20.43-1.96-2.28-.02-7.33-.3-9.6-.08-8.87.86-14.01,2.27-21.35,7.34-.9.62-3.09,2.79-3.56,3.78,2.86,2.79,5.99,3.87,9.46,5.86,1.5.86,3.04,1.64,4.58,2.42,2.67,1.35,5.36,2.71,8.24,3.51,3.81,1.06,6.12.48,10.07.45,5.35-.04,12.66-.5,18.01-.67,13.27-.4,32.06-2.83,44.59-7.22,2.98-1.04,5.55-3.04,8.29-4.56,1.17-.65,2.5-1.47,3.84-1.56,1.97-.14,4.19.33,6.16.48.91.07,1.83.14,2.73,0,1-.15,1.9-.72,2.89-.92,3.41-.71,7.08-2.05,10.68-3,2.18-.58,5.63-2.15,7.77-2.85,3.78-1.24,2.13-.54,5.96-4.94.48-.54,2.72-2.07,3.39-2.34.83-.33,1.74-.43,2.63-.56,4.74-.66,9.35-2.02,13.94-3.39"/>
    <path class="cls-2" d="M509.32,436.21c.97-2.38,3.2-5.46,4.44-7.71s1.86-5.18.41-7.3c-1.38-2.02-4.13-2.58-6.58-2.46-3.36.17-6.6,1.29-9.92,1.84s-6.99.46-9.71-1.53c-.72,2.42-3.06,3.95-5.26,5.19-5.07,2.86-10.34,5.37-15.76,7.49-1.16.45-2.35.91-3.27,1.75-2.21,2-2.18,5.42-1.98,8.39,2.81,2.99,7.33,5.18,11.42,5.57"/>
    <path class="cls-2" d="M596.3,366.88c-2.95,6.31-2.81,6.01-6.05,12.18-.59,1.12-3.28,6.84-3.8,7.99-.63,1.4-2.13,3.66-3.56,5.63-1.35,1.85-1.05,1.98-2.18,3.23-1.92,2.14-4.26,4.39-6.66,6.44-.71.61-2.97,2.4-3.7,3-.9.74-3.03,2.86-4,3.5-3,2-3.45,3-6.1,4.5-4.44,2.51-8.16,4.89-12.6,7.4-2.73,1.55-3.69,2.23-6.6,3.4-.83.33-3.55,2.41-4.3,2.9-1.61,1.05-6.95,2.75-8.8,3.27"/>
    <path class="cls-2" d="M514.46,426.97c.28-.74,1.23-1.22,2.41-1.56,2.29-.67,4.41-2.31,5.31-3.14,2.59-2.38,3.45-2.96,6.12-5.25,3.76-3.22,6.34-7.58,9.75-11.16,2.64-2.77,5.76-5.05,8.54-7.69,6.04-5.74,7.9-14.57,14.58-19.56,1.76-1.32,3.52-2.63,5.28-3.95,3.38-2.53,6.88-5.12,10.96-6.22,2.3-.62,4.69-.74,7.07-.85,3.92-.19,7.84-.38,11.77-.57-2.03,4.14-7.69,7.39-11.9,9.27-4.97,2.21-7.27,4.63-12.41,6.39-.85.29-3.42,1.95-4.14,2.48-1.77,1.31-3.58,2.08-5.66,3.67-1.9,1.46-3.29,2.32-5.41,3.43-1.97,1.04-3.64,2.56-5.29,4.06-3.07,2.8-6.14,5.6-9.21,8.39-3.56,3.25-8.42,7.22-11.98,10.46"/>
    <path class="cls-2" d="M366.24,449.82c18.77-2.72,37.61-7.44,56.45-5.29,7.68.88,15.19,2.89,22.85,3.91s15.71.99,22.81-2.05"/>
    <path class="cls-2" d="M484.51,422.6c-1.5-5.15-5.13-9.65-9.85-12.21-2.7-1.46-5.71-2.3-8.74-2.84-3.23-.58-6.51-.83-9.79-.76-4.1.09-8.17.68-12.26.86-5.35.24-11.78.62-15.98-1.68-3.16,3.29-6.69,8.97-6.95,13.53-.23,3.97,1.88,7.77,4.69,10.58s6.3,4.82,9.66,6.96c1.83,1.17,3.42,3.23,5.56,3.56"/>
    <path class="cls-2" d="M491.8,420.24c.17-.34.28-.77.23-1.15-.95-7.6,1.36-15.55,6.23-21.46,2.12-2.57,4.68-4.74,7.32-6.77,4.51-3.47,10.15-5.4,14.32-9.28,1.94-1.81,3.3-4.33,5.76-7.61,2.91,1.81,10,1.29,12.87,3.15,1.66,1.08,2.6,2.98,3.12,4.89,1.64,6.08-.3,12.48-2.23,18.47-.61,1.89-1.79,4.6-2.39,6.48.1-.29.77-1.4.88-1.69"/>
    <path class="cls-2" d="M530.27,375.54c-.32-3.7,2.07-6.28,2.32-9.79.08-1.17-.12-2.35-.41-3.49-1.69-6.71-4.89-12.51-11.05-15.67-.97-.5-1.73-.82-3.16-1.95-.82-.65-1.53-2.25-2.03-2.79-5.4,4.88-11.33,10.84-15.97,16.46-4.63,5.61-8.48,12.01-10.3,19.06"/>
    <path class="cls-2" d="M508.71,388.55c-2.74-3.99-7.41-7.75-12.02-9.21s-9.48-1.89-14.3-2.31c-4.78-.41-10.15,1.15-14.35-1.24-1.39,3.25-5.08,4.73-7.76,7.03-2.56,2.21-4.51,5.03-6.27,7.92-3.16,5.2-5.79,10.72-7.85,16.45"/>
    <path class="cls-2" d="M563.54,376.83c1.89-3.15,2-8.25,1.85-11.92-.2-4.92-.13-9.85.22-14.76.08-1.13,2.06-8.21,1.09-7.7-2.81,1.47-4.71,1.91-5.57,2.37-7.16,3.89-12.99,9.78-19.16,14.99-3.69,3.12-8.41,6.03-10.6,10.33"/>
    <path class="cls-2" d="M566.91,343.68c-1.93,2.99-7.5,7.19-10.01,9.72-7.37,7.4-11.7,17.22-15.86,26.79"/>
    <path class="cls-2" d="M421.58,417.14c-1.52-3.24-4.07-5.87-6.15-8.78-5.37-7.51-9-16.68-7.44-25.78,5.81,2.14,15.09-.12,22.06.8,1.76.23,3.51.58,5.12,1.3.64.29,1.81.52,2.66.88,1.08.46,1.82.89,3,1.29,1.11.37,2.04.59,3.05,1.19,3.13,1.86,5.88,3.31,8.83,5.44"/>
    <path class="cls-2" d="M420.98,440.14c-15.93-3.85-30.66-16.37-40.91-29.16-1.29-1.61-2.82-3.33-3.26-5.4,10.6,3.92,24.8-3.58,35.75-2.03"/>
    <path class="cls-2" d="M376.81,405.57c3.4,2.28,11.39,7.48,15.41,8.2,3.4.61,6.92.64,10.24,1.62,3.49,1.03,6.58,3.07,9.61,5.08,3.1,2.06,7.7,4.06,10.81,6.12"/>
    <path class="cls-2" d="M447.66,390.25c.72-11.38,5.29-24.01,11.63-33.49,1.17-1.75,2.75-2.48,3.62-4.75,1.96.42,3.21,2.16,5.84,2.67,8.76,1.69,17.57,6.91,25.16,12.33"/>
    <path class="cls-2" d="M197.31,271.73c-11.36.37-25.84,8.19-34.75,15.24-7.88,6.23-15.39,13.33-20.24,22.24-2.17,3.98-7.36,8.04-2.93,10.24,3.95,1.96,9.21.58,13.59.29,2.41-.16,8.36-1.47,10.83-2.02s8.99-3.4,10.15-5.65"/>
    <path class="cls-2" d="M223.95,276.49c-8.72,2.31-20.41,11.48-28.05,16.24-10.07,6.28-21.52,13.25-33.56,14.82-7.74,1.01-18.62,5.41-24.43,10.62"/>
    <path class="cls-2" d="M189.07,296.91c-7.79,5.08-14.89,13.67-19.25,21.88-.92,1.73-1.75,3.53-2.08,5.46-.28,1.65-.18,3.33-.25,5-.28,6.79-3.33,13.12-6.32,19.22,1.42-1.99,4.21-2.25,6.63-2.57,11.97-1.61,22.27-9.24,30.83-17.76.64-.64,1.62-3.83,1.77-5.26-.52,2.73-2.3,15.53-.5,21.04,2.13,6.53,9.54,10.19,11.86,16.66,1.26-3.84,5.09-6.1,8.42-8.4,9.55-6.62,16.74-16.03,23.77-25.27"/>
    <path class="cls-2" d="M221.24,277.39c2.6.05,4.42,3.3,6.43,4.96,3.34,2.76,8.14,2.54,12.48,2.44,3.51-.08,6.88,2.55,10.29,5.19.94.73,2.31.3,2.68-.82.39-1.21,1.56-2.59,2.16-2.84,2.25-.92,2.89-1.41,5.31-1.24.89.06,2.26-.04,3.11-.31s1.62-1.11,1.44-1.99"/>
    <path class="cls-2" d="M208.01,284.67c-4.63,4.35-10.61,10.95-13.29,16.71s-2.86,13.15,1.26,17.99c2.6,3.05,6.47,4.66,10.19,6.17-.5-1.24-.82-3.01.37-3.63.38-.2.83-.21,1.27-.23,4.55-.21,8.79-2.28,12.86-4.32,1.45-.73,3.77-2.57,5.47-2.28s3.3,2.51,4.51,3.56c3.35,2.89,6.98,5.57,11.18,7.09,2.56.93,5.25,1.41,7.89,2.07,5.58,1.4,10.96,3.63,15.89,6.59.07-1.74,1.04-2.4,2.98-3.28,1.35-.61,2.61-2.1,3.83-3.55,4.9-5.85,11.43-8.62,16.44-14.38,1.33-1.53,3.27-5.85,2.99-7.87"/>
    <path class="cls-2" d="M246,287.08c.35,5.86.81,13.3-3.01,17.77-3.82,4.46-11.27,8.38-16.85,10.23"/>
    <path class="cls-2" d="M256.96,285.07c.4,3.02,1.51,7.16,3.73,9.25,3.1,2.92,7.37,4.18,11.47,5.35,9.82,2.8,19.64,5.61,29.46,8.41,3.28.94,6.63,1.91,9.39,3.9-.29-1.5.77-2.95,2.01-3.83s2.71-1.43,3.9-2.38c2.44-1.96,3.28-5.41,2.89-8.52s-3.01-7.98-4.41-10.78"/>
    <path class="cls-2" d="M319.08,302.87c1.16,4.07,3.68,8.76,4.96,12.8s2.02,8.4.97,12.5c-.91,3.55-3.13,7.09-2.1,10.61-1.52-.53-1.79-1.41-3.17-2.9-.31-.33-2.38-1.37-2.83-1.41-11.86-1.15-26.89-6.83-35.86-14.68"/>
    <path class="cls-2" d="M286.65,324.1c.02,3.41-2.43,6.27-4.66,8.85-6.71,7.77-12.73,16.15-17.94,24.99-.27-2.05-1.79-3.76-3.55-4.86s-3.78-1.68-5.72-2.41c-4.12-1.54-8-3.71-11.46-6.42-2.52-1.97-5.38-6.17-5.59-9.36"/>
    <path class="cls-2" d="M317.53,290.75c.6,1.33,1.69,2.37,2.53,3.09,10.16,8.72,22.75,29.09,38.94,25.01"/>
    <path class="cls-2" d="M341.95,287.75c12.85,5.95,9.74,21.4,17.05,31.09-.59,5.86-27.32,4.24-34.69-2.31"/>
  </g>
</svg>